solid CATIA STL
  facet normal -1.000000e+000  -0.000000e+000  0.000000e+000
    outer loop
      vertex  0.000000e+000 -7.542680e+001  3.209368e+001
      vertex  0.000000e+000 -7.371962e+001 -5.636772e+001
      vertex  0.000000e+000 -7.542680e+001 -5.790632e+001
    endloop
  endfacet
  facet normal -1.000000e+000  0.000000e+000  0.000000e+000
    outer loop
      vertex  0.000000e+000 -7.542680e+001 -5.790632e+001
      vertex  0.000000e+000 -7.371962e+001 -5.636772e+001
      vertex  0.000000e+000  6.321614e+001 -5.636772e+001
    endloop
  endfacet
  facet normal -1.000000e+000  0.000000e+000  -0.000000e+000
    outer loop
      vertex  0.000000e+000 -7.542680e+001 -5.790632e+001
      vertex  0.000000e+000  6.321614e+001 -5.636772e+001
      vertex  0.000000e+000  6.457320e+001 -5.790632e+001
    endloop
  endfacet
  facet normal -9.999999e-001  0.000000e+000  0.000000e+000
    outer loop
      vertex  0.000000e+000 -7.371962e+001 -5.636772e+001
      vertex  0.000000e+000 -7.542680e+001  3.209368e+001
      vertex  0.000000e+000 -7.371962e+001  3.052587e+001
    endloop
  endfacet
  facet normal -1.000000e+000  0.000000e+000  0.000000e+000
    outer loop
      vertex  0.000000e+000 -7.371962e+001  3.052587e+001
      vertex  0.000000e+000 -7.542680e+001  3.209368e+001
      vertex  0.000000e+000  6.457320e+001  3.209368e+001
    endloop
  endfacet
  facet normal -9.999999e-001  0.000000e+000  0.000000e+000
    outer loop
      vertex  0.000000e+000 -7.371962e+001  3.052587e+001
      vertex  0.000000e+000  6.457320e+001  3.209368e+001
      vertex  0.000000e+000  6.321614e+001  3.052587e+001
    endloop
  endfacet
  facet normal -1.000000e+000  0.000000e+000  0.000000e+000
    outer loop
      vertex  0.000000e+000  6.321614e+001  3.052587e+001
      vertex  0.000000e+000  6.457320e+001  3.209368e+001
      vertex  0.000000e+000  6.457320e+001 -5.790632e+001
    endloop
  endfacet
  facet normal -1.000000e+000  0.000000e+000  0.000000e+000
    outer loop
      vertex  0.000000e+000  6.321614e+001  3.052587e+001
      vertex  0.000000e+000  6.457320e+001 -5.790632e+001
      vertex  0.000000e+000  6.321614e+001 -5.636772e+001
    endloop
  endfacet
  facet normal  0.000000e+000 -1.000000e+000  -0.000000e+000
    outer loop
      vertex  3.400000e+001  3.157320e+001 -5.790632e+001
      vertex  3.400000e+001  3.157320e+001 -5.636772e+001
      vertex  1.000000e+001  3.157320e+001 -5.790632e+001
    endloop
  endfacet
  facet normal  0.000000e+000 -1.000000e+000  0.000000e+000
    outer loop
      vertex  1.000000e+001  3.157320e+001 -5.790632e+001
      vertex  3.400000e+001  3.157320e+001 -5.636772e+001
      vertex  1.000000e+001  3.157320e+001 -5.636772e+001
    endloop
  endfacet
  facet normal -9.999999e-001  0.000000e+000  0.000000e+000
    outer loop
      vertex  3.400000e+001  3.157320e+001 -5.790632e+001
      vertex  3.400000e+001 -4.042680e+001 -5.790632e+001
      vertex  3.400000e+001  3.157320e+001 -5.636772e+001
    endloop
  endfacet
  facet normal -9.999999e-001  -0.000000e+000  0.000000e+000
    outer loop
      vertex  3.400000e+001  3.157320e+001 -5.636772e+001
      vertex  3.400000e+001 -4.042680e+001 -5.790632e+001
      vertex  3.400000e+001 -4.042680e+001 -5.636772e+001
    endloop
  endfacet
  facet normal  0.000000e+000  1.000000e+000  0.000000e+000
    outer loop
      vertex  1.000000e+001 -4.042680e+001 -5.790632e+001
      vertex  1.000000e+001 -4.042680e+001 -5.636772e+001
      vertex  3.400000e+001 -4.042680e+001 -5.790632e+001
    endloop
  endfacet
  facet normal  0.000000e+000  1.000000e+000  -0.000000e+000
    outer loop
      vertex  3.400000e+001 -4.042680e+001 -5.790632e+001
      vertex  1.000000e+001 -4.042680e+001 -5.636772e+001
      vertex  3.400000e+001 -4.042680e+001 -5.636772e+001
    endloop
  endfacet
  facet normal  9.999999e-001  0.000000e+000  0.000000e+000
    outer loop
      vertex  1.000000e+001 -4.042680e+001 -5.790632e+001
      vertex  1.000000e+001  3.157320e+001 -5.790632e+001
      vertex  1.000000e+001 -4.042680e+001 -5.636772e+001
    endloop
  endfacet
  facet normal  9.999999e-001  -0.000000e+000  0.000000e+000
    outer loop
      vertex  1.000000e+001 -4.042680e+001 -5.636772e+001
      vertex  1.000000e+001  3.157320e+001 -5.790632e+001
      vertex  1.000000e+001  3.157320e+001 -5.636772e+001
    endloop
  endfacet
  facet normal  1.000000e+000  0.000000e+000  0.000000e+000
    outer loop
      vertex  6.881580e+000 -7.542680e+001  1.326828e-001
      vertex  6.881580e+000 -7.542680e+001 -3.386732e+001
      vertex  6.881580e+000 -7.371962e+001  1.326828e-001
    endloop
  endfacet
  facet normal  1.000000e+000  0.000000e+000  0.000000e+000
    outer loop
      vertex  6.881580e+000 -7.371962e+001  1.326828e-001
      vertex  6.881580e+000 -7.542680e+001 -3.386732e+001
      vertex  6.881580e+000 -7.371962e+001 -3.386732e+001
    endloop
  endfacet
  facet normal  0.000000e+000  0.000000e+000 -1.000000e+000
    outer loop
      vertex  6.881580e+000 -7.542680e+001  1.326828e-001
      vertex  6.881580e+000 -7.371962e+001  1.326828e-001
      vertex  4.188158e+001 -7.542680e+001  1.326828e-001
    endloop
  endfacet
  facet normal  0.000000e+000  0.000000e+000 -1.000000e+000
    outer loop
      vertex  4.188158e+001 -7.542680e+001  1.326828e-001
      vertex  6.881580e+000 -7.371962e+001  1.326828e-001
      vertex  4.188158e+001 -7.371962e+001  1.326828e-001
    endloop
  endfacet
  facet normal  0.000000e+000  0.000000e+000  1.000000e+000
    outer loop
      vertex  4.188158e+001 -7.542680e+001 -3.386732e+001
      vertex  4.188158e+001 -7.371962e+001 -3.386732e+001
      vertex  6.881580e+000 -7.542680e+001 -3.386732e+001
    endloop
  endfacet
  facet normal  0.000000e+000  0.000000e+000  1.000000e+000
    outer loop
      vertex  6.881580e+000 -7.542680e+001 -3.386732e+001
      vertex  4.188158e+001 -7.371962e+001 -3.386732e+001
      vertex  6.881580e+000 -7.371962e+001 -3.386732e+001
    endloop
  endfacet
  facet normal -1.000000e+000  0.000000e+000  0.000000e+000
    outer loop
      vertex  4.188158e+001 -7.542680e+001 -3.386732e+001
      vertex  4.188158e+001 -7.542680e+001  1.326828e-001
      vertex  4.188158e+001 -7.371962e+001 -3.386732e+001
    endloop
  endfacet
  facet normal -1.000000e+000  0.000000e+000  0.000000e+000
    outer loop
      vertex  4.188158e+001 -7.371962e+001 -3.386732e+001
      vertex  4.188158e+001 -7.542680e+001  1.326828e-001
      vertex  4.188158e+001 -7.371962e+001  1.326828e-001
    endloop
  endfacet
  facet normal  0.000000e+000  0.000000e+000  1.000000e+000
    outer loop
      vertex  0.000000e+000 -7.371962e+001 -5.636772e+001
      vertex  1.000000e+001  3.157320e+001 -5.636772e+001
      vertex  0.000000e+000  6.321614e+001 -5.636772e+001
    endloop
  endfacet
  facet normal  0.000000e+000  0.000000e+000  1.000000e+000
    outer loop
      vertex  0.000000e+000  6.321614e+001 -5.636772e+001
      vertex  1.000000e+001  3.157320e+001 -5.636772e+001
      vertex  3.400000e+001  3.157320e+001 -5.636772e+001
    endloop
  endfacet
  facet normal  0.000000e+000  -0.000000e+000  1.000000e+000
    outer loop
      vertex  0.000000e+000  6.321614e+001 -5.636772e+001
      vertex  3.400000e+001  3.157320e+001 -5.636772e+001
      vertex  7.300000e+001  6.321614e+001 -5.636772e+001
    endloop
  endfacet
  facet normal  0.000000e+000  0.000000e+000  1.000000e+000
    outer loop
      vertex  1.000000e+001  3.157320e+001 -5.636772e+001
      vertex  0.000000e+000 -7.371962e+001 -5.636772e+001
      vertex  1.000000e+001 -4.042680e+001 -5.636772e+001
    endloop
  endfacet
  facet normal  0.000000e+000  0.000000e+000  1.000000e+000
    outer loop
      vertex  1.000000e+001 -4.042680e+001 -5.636772e+001
      vertex  0.000000e+000 -7.371962e+001 -5.636772e+001
      vertex  7.300000e+001 -7.371962e+001 -5.636772e+001
    endloop
  endfacet
  facet normal  0.000000e+000  0.000000e+000  1.000000e+000
    outer loop
      vertex  1.000000e+001 -4.042680e+001 -5.636772e+001
      vertex  7.300000e+001 -7.371962e+001 -5.636772e+001
      vertex  3.400000e+001 -4.042680e+001 -5.636772e+001
    endloop
  endfacet
  facet normal  -0.000000e+000  0.000000e+000  1.000000e+000
    outer loop
      vertex  3.400000e+001 -4.042680e+001 -5.636772e+001
      vertex  7.300000e+001 -7.371962e+001 -5.636772e+001
      vertex  7.300000e+001  6.321614e+001 -5.636772e+001
    endloop
  endfacet
  facet normal  0.000000e+000  0.000000e+000  1.000000e+000
    outer loop
      vertex  3.400000e+001 -4.042680e+001 -5.636772e+001
      vertex  7.300000e+001  6.321614e+001 -5.636772e+001
      vertex  3.400000e+001  3.157320e+001 -5.636772e+001
    endloop
  endfacet
  facet normal  0.000000e+000  1.000000e+000  -0.000000e+000
    outer loop
      vertex  7.300000e+001 -7.371962e+001  3.052587e+001
      vertex  4.188158e+001 -7.371962e+001  1.326828e-001
      vertex  0.000000e+000 -7.371962e+001  3.052587e+001
    endloop
  endfacet
  facet normal  0.000000e+000  1.000000e+000  0.000000e+000
    outer loop
      vertex  0.000000e+000 -7.371962e+001  3.052587e+001
      vertex  4.188158e+001 -7.371962e+001  1.326828e-001
      vertex  6.881580e+000 -7.371962e+001  1.326828e-001
    endloop
  endfacet
  facet normal  0.000000e+000  1.000000e+000  0.000000e+000
    outer loop
      vertex  0.000000e+000 -7.371962e+001  3.052587e+001
      vertex  6.881580e+000 -7.371962e+001  1.326828e-001
      vertex  0.000000e+000 -7.371962e+001 -5.636772e+001
    endloop
  endfacet
  facet normal  0.000000e+000  1.000000e+000  0.000000e+000
    outer loop
      vertex  0.000000e+000 -7.371962e+001 -5.636772e+001
      vertex  6.881580e+000 -7.371962e+001  1.326828e-001
      vertex  6.881580e+000 -7.371962e+001 -3.386732e+001
    endloop
  endfacet
  facet normal  0.000000e+000  1.000000e+000  0.000000e+000
    outer loop
      vertex  0.000000e+000 -7.371962e+001 -5.636772e+001
      vertex  6.881580e+000 -7.371962e+001 -3.386732e+001
      vertex  7.300000e+001 -7.371962e+001 -5.636772e+001
    endloop
  endfacet
  facet normal  0.000000e+000  9.999999e-001  0.000000e+000
    outer loop
      vertex  7.300000e+001 -7.371962e+001 -5.636772e+001
      vertex  6.881580e+000 -7.371962e+001 -3.386732e+001
      vertex  4.188158e+001 -7.371962e+001 -3.386732e+001
    endloop
  endfacet
  facet normal  -0.000000e+000  1.000000e+000  0.000000e+000
    outer loop
      vertex  7.300000e+001 -7.371962e+001 -5.636772e+001
      vertex  4.188158e+001 -7.371962e+001 -3.386732e+001
      vertex  7.300000e+001 -7.371962e+001  3.052587e+001
    endloop
  endfacet
  facet normal  0.000000e+000  1.000000e+000  0.000000e+000
    outer loop
      vertex  7.300000e+001 -7.371962e+001  3.052587e+001
      vertex  4.188158e+001 -7.371962e+001 -3.386732e+001
      vertex  4.188158e+001 -7.371962e+001  1.326828e-001
    endloop
  endfacet
  facet normal  0.000000e+000  0.000000e+000 -1.000000e+000
    outer loop
      vertex  7.300000e+001  6.321614e+001  3.052587e+001
      vertex  7.300000e+001 -7.371962e+001  3.052587e+001
      vertex  0.000000e+000  6.321614e+001  3.052587e+001
    endloop
  endfacet
  facet normal  0.000000e+000  0.000000e+000 -1.000000e+000
    outer loop
      vertex  0.000000e+000  6.321614e+001  3.052587e+001
      vertex  7.300000e+001 -7.371962e+001  3.052587e+001
      vertex  0.000000e+000 -7.371962e+001  3.052587e+001
    endloop
  endfacet
  facet normal  0.000000e+000 -1.000000e+000  0.000000e+000
    outer loop
      vertex  7.300000e+001  6.321614e+001  3.052587e+001
      vertex  0.000000e+000  6.321614e+001  3.052587e+001
      vertex  7.300000e+001  6.321614e+001 -5.636772e+001
    endloop
  endfacet
  facet normal  0.000000e+000 -1.000000e+000  0.000000e+000
    outer loop
      vertex  7.300000e+001  6.321614e+001 -5.636772e+001
      vertex  0.000000e+000  6.321614e+001  3.052587e+001
      vertex  0.000000e+000  6.321614e+001 -5.636772e+001
    endloop
  endfacet
  facet normal -1.000000e+000  0.000000e+000  0.000000e+000
    outer loop
      vertex  7.300000e+001  6.321614e+001 -5.636772e+001
      vertex  7.300000e+001 -7.371962e+001 -5.636772e+001
      vertex  7.300000e+001  6.321614e+001  3.052587e+001
    endloop
  endfacet
  facet normal -1.000000e+000  -0.000000e+000  0.000000e+000
    outer loop
      vertex  7.300000e+001  6.321614e+001  3.052587e+001
      vertex  7.300000e+001 -7.371962e+001 -5.636772e+001
      vertex  7.300000e+001 -7.371962e+001  3.052587e+001
    endloop
  endfacet
  facet normal  0.000000e+000 -1.000000e+000  -0.000000e+000
    outer loop
      vertex  7.500000e+001 -7.542680e+001 -5.790632e+001
      vertex  4.188158e+001 -7.542680e+001 -3.386732e+001
      vertex  0.000000e+000 -7.542680e+001 -5.790632e+001
    endloop
  endfacet
  facet normal  0.000000e+000 -1.000000e+000  0.000000e+000
    outer loop
      vertex  0.000000e+000 -7.542680e+001 -5.790632e+001
      vertex  4.188158e+001 -7.542680e+001 -3.386732e+001
      vertex  6.881580e+000 -7.542680e+001 -3.386732e+001
    endloop
  endfacet
  facet normal  -0.000000e+000 -1.000000e+000  0.000000e+000
    outer loop
      vertex  0.000000e+000 -7.542680e+001 -5.790632e+001
      vertex  6.881580e+000 -7.542680e+001 -3.386732e+001
      vertex  0.000000e+000 -7.542680e+001  3.209368e+001
    endloop
  endfacet
  facet normal  0.000000e+000 -1.000000e+000  0.000000e+000
    outer loop
      vertex  0.000000e+000 -7.542680e+001  3.209368e+001
      vertex  6.881580e+000 -7.542680e+001 -3.386732e+001
      vertex  6.881580e+000 -7.542680e+001  1.326828e-001
    endloop
  endfacet
  facet normal  0.000000e+000 -1.000000e+000  0.000000e+000
    outer loop
      vertex  0.000000e+000 -7.542680e+001  3.209368e+001
      vertex  6.881580e+000 -7.542680e+001  1.326828e-001
      vertex  7.500000e+001 -7.542680e+001  3.209368e+001
    endloop
  endfacet
  facet normal  0.000000e+000 -1.000000e+000  0.000000e+000
    outer loop
      vertex  7.500000e+001 -7.542680e+001  3.209368e+001
      vertex  6.881580e+000 -7.542680e+001  1.326828e-001
      vertex  4.188158e+001 -7.542680e+001  1.326828e-001
    endloop
  endfacet
  facet normal  0.000000e+000 -1.000000e+000  0.000000e+000
    outer loop
      vertex  7.500000e+001 -7.542680e+001  3.209368e+001
      vertex  4.188158e+001 -7.542680e+001  1.326828e-001
      vertex  7.500000e+001 -7.542680e+001 -5.790632e+001
    endloop
  endfacet
  facet normal  0.000000e+000 -1.000000e+000  0.000000e+000
    outer loop
      vertex  7.500000e+001 -7.542680e+001 -5.790632e+001
      vertex  4.188158e+001 -7.542680e+001  1.326828e-001
      vertex  4.188158e+001 -7.542680e+001 -3.386732e+001
    endloop
  endfacet
  facet normal  -0.000000e+000  0.000000e+000 -1.000000e+000
    outer loop
      vertex  0.000000e+000  6.457320e+001 -5.790632e+001
      vertex  1.000000e+001 -4.042680e+001 -5.790632e+001
      vertex  0.000000e+000 -7.542680e+001 -5.790632e+001
    endloop
  endfacet
  facet normal  0.000000e+000  0.000000e+000 -1.000000e+000
    outer loop
      vertex  0.000000e+000 -7.542680e+001 -5.790632e+001
      vertex  1.000000e+001 -4.042680e+001 -5.790632e+001
      vertex  3.400000e+001 -4.042680e+001 -5.790632e+001
    endloop
  endfacet
  facet normal  0.000000e+000  -0.000000e+000 -1.000000e+000
    outer loop
      vertex  0.000000e+000 -7.542680e+001 -5.790632e+001
      vertex  3.400000e+001 -4.042680e+001 -5.790632e+001
      vertex  7.500000e+001 -7.542680e+001 -5.790632e+001
    endloop
  endfacet
  facet normal  0.000000e+000  0.000000e+000 -1.000000e+000
    outer loop
      vertex  1.000000e+001 -4.042680e+001 -5.790632e+001
      vertex  0.000000e+000  6.457320e+001 -5.790632e+001
      vertex  1.000000e+001  3.157320e+001 -5.790632e+001
    endloop
  endfacet
  facet normal  0.000000e+000  0.000000e+000 -1.000000e+000
    outer loop
      vertex  1.000000e+001  3.157320e+001 -5.790632e+001
      vertex  0.000000e+000  6.457320e+001 -5.790632e+001
      vertex  7.500000e+001  6.457320e+001 -5.790632e+001
    endloop
  endfacet
  facet normal  0.000000e+000  0.000000e+000 -1.000000e+000
    outer loop
      vertex  1.000000e+001  3.157320e+001 -5.790632e+001
      vertex  7.500000e+001  6.457320e+001 -5.790632e+001
      vertex  3.400000e+001  3.157320e+001 -5.790632e+001
    endloop
  endfacet
  facet normal  0.000000e+000  0.000000e+000 -1.000000e+000
    outer loop
      vertex  3.400000e+001  3.157320e+001 -5.790632e+001
      vertex  7.500000e+001  6.457320e+001 -5.790632e+001
      vertex  7.500000e+001 -7.542680e+001 -5.790632e+001
    endloop
  endfacet
  facet normal  0.000000e+000  0.000000e+000 -1.000000e+000
    outer loop
      vertex  3.400000e+001  3.157320e+001 -5.790632e+001
      vertex  7.500000e+001 -7.542680e+001 -5.790632e+001
      vertex  3.400000e+001 -4.042680e+001 -5.790632e+001
    endloop
  endfacet
  facet normal  9.999999e-001  0.000000e+000  0.000000e+000
    outer loop
      vertex  7.500000e+001 -7.542680e+001 -5.790632e+001
      vertex  7.500000e+001  6.457320e+001 -5.790632e+001
      vertex  7.500000e+001 -7.542680e+001  3.209368e+001
    endloop
  endfacet
  facet normal  9.999999e-001  -0.000000e+000  0.000000e+000
    outer loop
      vertex  7.500000e+001 -7.542680e+001  3.209368e+001
      vertex  7.500000e+001  6.457320e+001 -5.790632e+001
      vertex  7.500000e+001  6.457320e+001  3.209368e+001
    endloop
  endfacet
  facet normal  0.000000e+000  0.000000e+000  1.000000e+000
    outer loop
      vertex  7.500000e+001 -7.542680e+001  3.209368e+001
      vertex  7.500000e+001  6.457320e+001  3.209368e+001
      vertex  0.000000e+000 -7.542680e+001  3.209368e+001
    endloop
  endfacet
  facet normal  0.000000e+000  0.000000e+000  1.000000e+000
    outer loop
      vertex  0.000000e+000 -7.542680e+001  3.209368e+001
      vertex  7.500000e+001  6.457320e+001  3.209368e+001
      vertex  0.000000e+000  6.457320e+001  3.209368e+001
    endloop
  endfacet
  facet normal  0.000000e+000  1.000000e+000  0.000000e+000
    outer loop
      vertex  7.500000e+001  6.457320e+001 -5.790632e+001
      vertex  0.000000e+000  6.457320e+001 -5.790632e+001
      vertex  7.500000e+001  6.457320e+001  3.209368e+001
    endloop
  endfacet
  facet normal  0.000000e+000  1.000000e+000  0.000000e+000
    outer loop
      vertex  7.500000e+001  6.457320e+001  3.209368e+001
      vertex  0.000000e+000  6.457320e+001 -5.790632e+001
      vertex  0.000000e+000  6.457320e+001  3.209368e+001
    endloop
  endfacet
endsolid CATIA STL
